<?xml version="1.0" encoding="UTF-8" ?>
<svg version="1.1" width="16" height="16" xmlns="http://www.w3.org/2000/svg" shape-rendering="crispEdges">
<rect x="4" y="1" width="1" height="1" fill="#6ABE30" />
<rect x="10" y="1" width="1" height="1" fill="#6ABE30" />
<rect x="4" y="2" width="1" height="1" fill="#6ABE30" />
<rect x="9" y="2" width="1" height="1" fill="#6ABE30" />
<rect x="10" y="2" width="1" height="1" fill="#6ABE30" />
<rect x="11" y="2" width="1" height="1" fill="#6ABE30" />
<rect x="2" y="3" width="1" height="1" fill="#6ABE30" />
<rect x="3" y="3" width="1" height="1" fill="#6ABE30" />
<rect x="4" y="3" width="1" height="1" fill="#6ABE30" />
<rect x="5" y="3" width="1" height="1" fill="#6ABE30" />
<rect x="6" y="3" width="1" height="1" fill="#6ABE30" />
<rect x="8" y="3" width="1" height="1" fill="#6ABE30" />
<rect x="9" y="3" width="1" height="1" fill="#6ABE30" />
<rect x="10" y="3" width="1" height="1" fill="#6ABE30" />
<rect x="11" y="3" width="1" height="1" fill="#6ABE30" />
<rect x="12" y="3" width="1" height="1" fill="#6ABE30" />
<rect x="3" y="4" width="1" height="1" fill="#6ABE30" />
<rect x="4" y="4" width="1" height="1" fill="#6ABE30" />
<rect x="5" y="4" width="1" height="1" fill="#6ABE30" />
<rect x="10" y="4" width="1" height="1" fill="#6ABE30" />
<rect x="4" y="5" width="1" height="1" fill="#6ABE30" />
<rect x="10" y="5" width="1" height="1" fill="#6ABE30" />
<rect x="2" y="7" width="1" height="1" fill="#3F3F74" />
<rect x="3" y="7" width="1" height="1" fill="#3F3F74" />
<rect x="4" y="7" width="1" height="1" fill="#3F3F74" />
<rect x="5" y="7" width="1" height="1" fill="#3F3F74" />
<rect x="6" y="7" width="1" height="1" fill="#3F3F74" />
<rect x="7" y="7" width="1" height="1" fill="#3F3F74" />
<rect x="8" y="7" width="1" height="1" fill="#3F3F74" />
<rect x="9" y="7" width="1" height="1" fill="#3F3F74" />
<rect x="10" y="7" width="1" height="1" fill="#3F3F74" />
<rect x="11" y="7" width="1" height="1" fill="#3F3F74" />
<rect x="12" y="7" width="1" height="1" fill="#3F3F74" />
<rect x="13" y="7" width="1" height="1" fill="#3F3F74" />
<rect x="2" y="8" width="1" height="1" fill="#3F3F74" />
<rect x="3" y="8" width="1" height="1" fill="#222034" />
<rect x="4" y="8" width="1" height="1" fill="#222034" />
<rect x="5" y="8" width="1" height="1" fill="#222034" />
<rect x="6" y="8" width="1" height="1" fill="#222034" />
<rect x="7" y="8" width="1" height="1" fill="#222034" />
<rect x="8" y="8" width="1" height="1" fill="#222034" />
<rect x="9" y="8" width="1" height="1" fill="#222034" />
<rect x="10" y="8" width="1" height="1" fill="#222034" />
<rect x="11" y="8" width="1" height="1" fill="#222034" />
<rect x="12" y="8" width="1" height="1" fill="#222034" />
<rect x="13" y="8" width="1" height="1" fill="#3F3F74" />
<rect x="2" y="9" width="1" height="1" fill="#3F3F74" />
<rect x="3" y="9" width="1" height="1" fill="#222034" />
<rect x="4" y="9" width="1" height="1" fill="#D4D3D9" />
<rect x="5" y="9" width="1" height="1" fill="#D4D3D9" />
<rect x="6" y="9" width="1" height="1" fill="#D4D3D9" />
<rect x="7" y="9" width="1" height="1" fill="#D4D3D9" />
<rect x="8" y="9" width="1" height="1" fill="#222034" />
<rect x="9" y="9" width="1" height="1" fill="#222034" />
<rect x="10" y="9" width="1" height="1" fill="#D4D3D9" />
<rect x="11" y="9" width="1" height="1" fill="#222034" />
<rect x="12" y="9" width="1" height="1" fill="#222034" />
<rect x="13" y="9" width="1" height="1" fill="#3F3F74" />
<rect x="2" y="10" width="1" height="1" fill="#3F3F74" />
<rect x="3" y="10" width="1" height="1" fill="#222034" />
<rect x="4" y="10" width="1" height="1" fill="#222034" />
<rect x="5" y="10" width="1" height="1" fill="#222034" />
<rect x="6" y="10" width="1" height="1" fill="#222034" />
<rect x="7" y="10" width="1" height="1" fill="#222034" />
<rect x="8" y="10" width="1" height="1" fill="#222034" />
<rect x="9" y="10" width="1" height="1" fill="#222034" />
<rect x="10" y="10" width="1" height="1" fill="#222034" />
<rect x="11" y="10" width="1" height="1" fill="#222034" />
<rect x="12" y="10" width="1" height="1" fill="#222034" />
<rect x="13" y="10" width="1" height="1" fill="#3F3F74" />
<rect x="2" y="11" width="1" height="1" fill="#3F3F74" />
<rect x="3" y="11" width="1" height="1" fill="#222034" />
<rect x="4" y="11" width="1" height="1" fill="#222034" />
<rect x="5" y="11" width="1" height="1" fill="#222034" />
<rect x="6" y="11" width="1" height="1" fill="#222034" />
<rect x="7" y="11" width="1" height="1" fill="#222034" />
<rect x="8" y="11" width="1" height="1" fill="#222034" />
<rect x="9" y="11" width="1" height="1" fill="#3F3F74" />
<rect x="10" y="11" width="1" height="1" fill="#3F3F74" />
<rect x="11" y="11" width="1" height="1" fill="#3F3F74" />
<rect x="12" y="11" width="1" height="1" fill="#3F3F74" />
<rect x="13" y="11" width="1" height="1" fill="#3F3F74" />
<rect x="2" y="12" width="1" height="1" fill="#3F3F74" />
<rect x="3" y="12" width="1" height="1" fill="#3F3F74" />
<rect x="4" y="12" width="1" height="1" fill="#3F3F74" />
<rect x="5" y="12" width="1" height="1" fill="#3F3F74" />
<rect x="6" y="12" width="1" height="1" fill="#3F3F74" />
<rect x="7" y="12" width="1" height="1" fill="#3F3F74" />
<rect x="8" y="12" width="1" height="1" fill="#3F3F74" />
<rect x="9" y="12" width="1" height="1" fill="#3F3F74" />
</svg>